<svg xmlns="http://www.w3.org/2000/svg" width="2000" height="2000" viewBox="0 0 2000 2000" version="1.1"><path d="M 1259.724 547.776 C 1202.569 604.936, 1188.205 619.805, 1189.194 620.794 C 1190.183 621.783, 1187.876 624.628, 1177.868 634.768 C 1170.955 641.771, 1148.020 665.021, 1126.900 686.435 C 1105.780 707.850, 1051.312 762.750, 1005.860 808.435 C 960.409 854.121, 919.745 895.100, 915.498 899.500 C 911.250 903.900, 883.975 931.415, 854.887 960.645 C 825.799 989.875, 802 1014.400, 802 1015.144 C 802 1015.889, 889.322 1103.821, 996.049 1210.549 C 1183.118 1397.620, 1190.031 1404.662, 1188.204 1406.315 C 1186.373 1407.973, 1186.642 1408.351, 1196.350 1417.765 C 1201.871 1423.119, 1234.643 1455.625, 1269.176 1490 L 1331.963 1552.500 1350.766 1534 C 1361.107 1523.825, 1385.003 1500.425, 1403.867 1482 C 1422.731 1463.575, 1448.250 1438.595, 1460.577 1426.488 L 1482.989 1404.477 1288.548 1210.053 C 1158.115 1079.631, 1094.346 1015.205, 1094.831 1014.338 C 1095.642 1012.887, 1125.691 982.525, 1260.988 846.448 C 1372.701 734.089, 1482.383 623.099, 1482.802 621.987 C 1482.968 621.547, 1482.188 620.545, 1481.068 619.760 C 1479.947 618.975, 1474.614 614.096, 1469.216 608.917 C 1463.818 603.737, 1457.849 598.241, 1455.951 596.703 C 1454.054 595.165, 1446.481 588.190, 1439.123 581.203 C 1431.765 574.216, 1423.664 566.716, 1421.122 564.535 C 1414.859 559.162, 1399.088 543.334, 1363.543 506.750 C 1347.111 489.837, 1333.178 476, 1332.581 476 C 1331.983 476, 1299.198 508.299, 1259.724 547.776" stroke="none" fill="#000000" fill-rule="evenodd"/><path d="M 768.249 744.251 C 619.612 892.889, 498 1014.888, 498 1015.361 C 498 1015.834, 552.094 1070.059, 618.210 1135.860 C 703.639 1220.885, 1012.655 1528.930, 1038.244 1554.575 C 1038.653 1554.985, 1051.928 1542.499, 1067.744 1526.827 C 1126.299 1468.808, 1184.858 1411.618, 1186.214 1411.126 C 1186.782 1410.920, 1219.795 1443.297, 1259.576 1483.076 L 1331.906 1555.401 1360.703 1526.802 C 1376.541 1511.072, 1392.940 1494.894, 1397.144 1490.851 C 1401.348 1486.808, 1422.422 1466.175, 1443.976 1445 C 1465.530 1423.825, 1483.578 1406.350, 1484.082 1406.167 C 1484.587 1405.983, 1485 1405.531, 1485 1405.161 C 1485 1404.791, 1397.700 1317.192, 1291 1210.497 C 1184.300 1103.803, 1097 1015.900, 1097 1015.158 C 1097 1014.416, 1122.117 988.540, 1152.815 957.655 C 1339.519 769.816, 1486.190 621.727, 1485.728 621.521 C 1485.379 621.366, 1465.883 603.840, 1462.901 601 C 1461.457 599.625, 1458.526 596.935, 1456.387 595.022 C 1450.874 590.090, 1428.888 569.849, 1420.002 561.524 C 1410.610 552.725, 1408.941 551.043, 1367.613 508.750 C 1348.936 489.637, 1333.172 474, 1332.580 474 C 1331.989 474, 1299.251 506.252, 1259.829 545.671 L 1188.153 617.342 1184.327 614.021 C 1181.304 611.399, 1169.732 600.926, 1161.619 593.472 C 1116.607 552.110, 1124.369 559.668, 1074.613 508.750 C 1055.936 489.637, 1040.170 474, 1039.577 474 C 1038.984 474, 916.886 595.613, 768.249 744.251 M 1259.724 547.776 C 1202.569 604.936, 1188.205 619.805, 1189.194 620.794 C 1190.183 621.783, 1187.876 624.628, 1177.868 634.768 C 1170.955 641.771, 1148.020 665.021, 1126.900 686.435 C 1105.780 707.850, 1051.312 762.750, 1005.860 808.435 C 960.409 854.121, 919.745 895.100, 915.498 899.500 C 911.250 903.900, 883.975 931.415, 854.887 960.645 C 825.799 989.875, 802 1014.400, 802 1015.144 C 802 1015.889, 889.322 1103.821, 996.049 1210.549 C 1183.118 1397.620, 1190.031 1404.662, 1188.204 1406.315 C 1186.373 1407.973, 1186.642 1408.351, 1196.350 1417.765 C 1201.871 1423.119, 1234.643 1455.625, 1269.176 1490 L 1331.963 1552.500 1350.766 1534 C 1361.107 1523.825, 1385.003 1500.425, 1403.867 1482 C 1422.731 1463.575, 1448.250 1438.595, 1460.577 1426.488 L 1482.989 1404.477 1288.548 1210.053 C 1158.115 1079.631, 1094.346 1015.205, 1094.831 1014.338 C 1095.642 1012.887, 1125.691 982.525, 1260.988 846.448 C 1372.701 734.089, 1482.383 623.099, 1482.802 621.987 C 1482.968 621.547, 1482.188 620.545, 1481.068 619.760 C 1479.947 618.975, 1474.614 614.096, 1469.216 608.917 C 1463.818 603.737, 1457.849 598.241, 1455.951 596.703 C 1454.054 595.165, 1446.481 588.190, 1439.123 581.203 C 1431.765 574.216, 1423.664 566.716, 1421.122 564.535 C 1414.859 559.162, 1399.088 543.334, 1363.543 506.750 C 1347.111 489.837, 1333.178 476, 1332.581 476 C 1331.983 476, 1299.198 508.299, 1259.724 547.776" stroke="none" fill="#3c2868" fill-rule="evenodd"/></svg>